<?xml version="1.0" standalone="no"?>
<!DOCTYPE svg PUBLIC "-//W3C//DTD SVG 20010904//EN"
 "http://www.w3.org/TR/2001/REC-SVG-20010904/DTD/svg10.dtd">
<svg version="1.0" xmlns="http://www.w3.org/2000/svg"
 width="260.000000pt" height="260.000000pt" viewBox="0 0 260.000000 260.000000"
 preserveAspectRatio="xMidYMid meet">
<metadata>
Created by potrace 1.11, written by Peter Selinger 2001-2013
</metadata>
<g transform="translate(0.000000,260.000000) scale(0.100000,-0.100000)"
fill="#000000" stroke="none">
<path d="M0 1300 l0 -1300 1300 0 1300 0 0 1300 0 1300 -1300 0 -1300 0 0
-1300z m1016 30 c85 -222 163 -428 174 -457 l20 -53 -94 0 -94 0 -43 115 -42
115 -161 -2 -160 -3 -41 -110 -40 -110 -93 -3 c-50 -1 -92 1 -92 5 0 4 78 211
173 460 l172 453 84 -2 84 -3 153 -405z m1171 374 c52 -41 93 -124 93 -188 0
-83 -17 -126 -70 -178 l-48 -46 29 -12 c41 -18 106 -92 118 -136 37 -132 -13
-240 -134 -296 -48 -22 -62 -23 -327 -26 l-278 -3 0 461 0 461 289 -3 289 -3
39 -31z"/>
<path d="M715 1363 c-33 -92 -61 -170 -63 -175 -2 -4 53 -8 122 -8 69 0 126 1
126 3 0 7 -111 321 -118 333 -4 7 -32 -56 -67 -153z"/>
<path d="M1760 1475 l0 -115 130 0 c142 0 173 8 196 51 30 59 10 144 -41 167
-16 7 -76 12 -155 12 l-130 0 0 -115z"/>
<path d="M1760 1090 l0 -120 138 0 c160 0 195 11 226 73 23 49 15 100 -24 139
l-28 28 -156 0 -156 0 0 -120z"/>
</g>
</svg>
